<?xml version="1.0" encoding="UTF-8"?>
<svg version="1.1" xmlns="http://www.w3.org/2000/svg" width="512" height="512">
<path d="M0 0 C1.02528809 0.19867676 2.05057617 0.39735352 3.10693359 0.60205078 C46.162208 9.15926253 85.08668117 27.91691855 118 57 C118.77730469 57.66644531 119.55460937 58.33289062 120.35546875 59.01953125 C133.59925306 70.57649966 146.3805902 83.08329319 156.75390625 97.30517578 C158.04941202 99.06720577 159.38024064 100.79780385 160.71875 102.52734375 C183.55422419 132.34835329 198.22349443 168.18709139 205 205 C205.16226074 205.82677246 205.32452148 206.65354492 205.49169922 207.50537109 C208.33673472 222.57613189 208.31197816 237.78007107 208.375 253.0625 C208.38294586 254.0718158 208.39089172 255.08113159 208.39907837 256.12103271 C208.80955979 324.1064148 181.52210643 385.95486629 134.14282227 434.08447266 C133.22944092 435.00534668 132.31605957 435.9262207 131.375 436.875 C130.51640381 437.74302246 129.65780762 438.61104492 128.77319336 439.50537109 C122.82485841 445.42366681 116.58309343 450.80122552 110 456 C109.32517578 456.53947266 108.65035156 457.07894531 107.95507812 457.63476562 C64.49869817 492.0745277 10.26318707 509.73961935 -44.97949219 509.39111328 C-47.99980783 509.37500103 -51.01878616 509.39110242 -54.0390625 509.41015625 C-108.40191413 509.46899408 -163.40572554 491.18741429 -205.41308594 456.31054688 C-206.91820116 455.06755325 -208.44681779 453.85317855 -209.9765625 452.640625 C-217.49746845 446.53839124 -224.3867392 439.8238349 -231.25 433 C-232.17296875 432.08629639 -233.0959375 431.17259277 -234.046875 430.23120117 C-240.12273755 424.12751275 -245.65419496 417.74816163 -251 411 C-251.86855593 409.93909128 -252.73808487 408.87897686 -253.609375 407.8203125 C-264.96504132 393.52211951 -274.4664782 377.62447342 -282 361 C-282.33338379 360.26604004 -282.66676758 359.53208008 -283.01025391 358.77587891 C-291.3645509 340.15806736 -297.13556959 321.02957512 -301 301 C-301.16661133 300.16162598 -301.33322266 299.32325195 -301.50488281 298.45947266 C-307.04892241 269.04621912 -306.87864943 234.34042909 -301 205 C-300.80132324 203.97471191 -300.60264648 202.94942383 -300.39794922 201.89306641 C-291.29656535 156.09981137 -270.56502729 115.7849389 -239.12109375 81.34375 C-237.18168497 79.20075688 -235.30670701 77.01655362 -233.4375 74.8125 C-230.61797264 71.58192537 -227.60832625 68.79194804 -224.3359375 66.02734375 C-222.03280662 64.02847263 -219.82518047 61.94631578 -217.61767578 59.84301758 C-199.68614759 42.87761609 -178.46529 29.18033762 -156 19 C-155.26604004 18.66661621 -154.53208008 18.33323242 -153.77587891 17.98974609 C-135.15806736 9.6354491 -116.02957512 3.86443041 -96 0 C-95.16162598 -0.16661133 -94.32325195 -0.33322266 -93.45947266 -0.50488281 C-64.04621912 -6.04892241 -29.34042909 -5.87864943 0 0 Z " fill="#2DA1C6" transform="translate(304,3)"/>
<path d="M0 0 C2.06566739 -0.00378706 4.13133224 -0.00929029 6.19699097 -0.01637268 C11.78577659 -0.03029306 17.37425317 -0.01918178 22.96302152 -0.00266147 C28.82178038 0.01122565 34.68052198 0.00472485 40.53929138 0.00120544 C50.37536579 -0.00149356 60.21131796 0.01195313 70.04736328 0.03515625 C81.40819875 0.06177135 92.76882997 0.06350953 104.12968594 0.05176789 C115.0743219 0.04097769 126.01888421 0.04718648 136.96351433 0.06132317 C141.61441737 0.06707142 146.26526631 0.06700942 150.91617012 0.06225777 C156.39509775 0.05747501 161.87380256 0.06764358 167.35268784 0.08921242 C169.35976726 0.09476247 171.36686818 0.095262 173.37394905 0.09025955 C176.12056161 0.08427387 178.86650035 0.09687448 181.61305237 0.11402893 C182.40100569 0.10801889 183.18895901 0.10200884 184.0007897 0.09581667 C192.68983591 0.19402242 199.58297228 2.62738451 205.91186523 8.60327148 C211.66820813 14.93264399 212.7648497 21.19994768 212.75868225 29.55683899 C212.75996389 30.60455303 212.75996389 30.60455303 212.76127142 31.67343301 C212.76291481 34.00724989 212.75742357 36.34099445 212.75195312 38.67480469 C212.75167098 40.35039773 212.75182952 42.02599089 212.75239563 43.70158386 C212.75268254 48.24660821 212.74680291 52.79160617 212.73982167 57.33662438 C212.73357052 62.08787416 212.73298294 66.83912455 212.73179626 71.59037781 C212.72868815 80.58587282 212.72048176 89.58135568 212.71044677 98.57684535 C212.69926951 108.81860275 212.69377112 119.06036073 212.68875134 129.30212271 C212.67829872 150.36865825 212.66070933 171.43518285 212.63842773 192.50170898 C210.98842773 191.18170898 209.33842773 189.86170898 207.63842773 188.50170898 C206.77217773 188.93483398 206.77217773 188.93483398 205.88842773 189.37670898 C202.76342773 190.93920898 202.76342773 190.93920898 199.63842773 192.50170898 C198.31842773 191.18170898 196.99842773 189.86170898 195.63842773 188.50170898 C193.14481203 189.70552346 190.95699691 190.9559962 188.63842773 192.50170898 C187.31842773 191.18170898 185.99842773 189.86170898 184.63842773 188.50170898 C182.14481203 189.70552346 179.95699691 190.9559962 177.63842773 192.50170898 C176.31842773 191.18170898 174.99842773 189.86170898 173.63842773 188.50170898 C172.77217773 188.93483398 172.77217773 188.93483398 171.88842773 189.37670898 C168.76342773 190.93920898 168.76342773 190.93920898 165.63842773 192.50170898 C164.64842773 191.51170898 163.65842773 190.52170898 162.63842773 189.50170898 C162.30842773 214.25170898 161.97842773 239.00170898 161.63842773 264.50170898 C160.97842773 264.50170898 160.31842773 264.50170898 159.63842773 264.50170898 C158.01342773 262.50170898 158.01342773 262.50170898 156.63842773 260.50170898 C155.77217773 260.93483398 155.77217773 260.93483398 154.88842773 261.37670898 C152.8050944 262.41837565 150.72176107 263.46004232 148.63842773 264.50170898 C147.31842773 263.18170898 145.99842773 261.86170898 144.63842773 260.50170898 C143.77217773 260.93483398 143.77217773 260.93483398 142.88842773 261.37670898 C140.8050944 262.41837565 138.72176107 263.46004232 136.63842773 264.50170898 C135.64842773 263.18170898 134.65842773 261.86170898 133.63842773 260.50170898 C131.65842773 261.16170898 129.67842773 261.82170898 127.63842773 262.50170898 C127.63842773 263.16170898 127.63842773 263.82170898 127.63842773 264.50170898 C124.97176107 263.16837565 122.3050944 261.83504232 119.63842773 260.50170898 C117.16342773 262.48170898 117.16342773 262.48170898 114.63842773 264.50170898 C113.31842773 263.18170898 111.99842773 261.86170898 110.63842773 260.50170898 C108.14481203 261.70552346 105.95699691 262.9559962 103.63842773 264.50170898 C102.31842773 263.18170898 100.99842773 261.86170898 99.63842773 260.50170898 C97.14481203 261.70552346 94.95699691 262.9559962 92.63842773 264.50170898 C91.31842773 263.18170898 89.99842773 261.86170898 88.63842773 260.50170898 C87.77217773 260.93483398 87.77217773 260.93483398 86.88842773 261.37670898 C84.8050944 262.41837565 82.72176107 263.46004232 80.63842773 264.50170898 C79.64842773 263.18170898 78.65842773 261.86170898 77.63842773 260.50170898 C75.69767913 260.77788432 75.69767913 260.77788432 73.63842773 261.50170898 C72.97842773 262.49170898 72.31842773 263.48170898 71.63842773 264.50170898 C68.97176107 263.16837565 66.3050944 261.83504232 63.63842773 260.50170898 C61.98842773 261.82170898 60.33842773 263.14170898 58.63842773 264.50170898 C56.65842773 262.52170898 56.65842773 262.52170898 54.63842773 260.50170898 C52.14481203 261.70552346 49.95699691 262.9559962 47.63842773 264.50170898 C45.65842773 262.52170898 45.65842773 262.52170898 43.63842773 260.50170898 C41.14481203 261.70552346 38.95699691 262.9559962 36.63842773 264.50170898 C34.65842773 262.52170898 34.65842773 262.52170898 32.63842773 260.50170898 C31.77217773 260.93483398 31.77217773 260.93483398 30.88842773 261.37670898 C28.8050944 262.41837565 26.72176107 263.46004232 24.63842773 264.50170898 C23.15342773 262.52170898 23.15342773 262.52170898 21.63842773 260.50170898 C19.69767913 260.77788432 19.69767913 260.77788432 17.63842773 261.50170898 C16.97842773 262.49170898 16.31842773 263.48170898 15.63842773 264.50170898 C12.97176107 263.16837565 10.3050944 261.83504232 7.63842773 260.50170898 C5.98842773 261.82170898 4.33842773 263.14170898 2.63842773 264.50170898 C1.31842773 263.18170898 -0.00157227 261.86170898 -1.36157227 260.50170898 C-3.85518797 261.70552346 -6.04300309 262.9559962 -8.36157227 264.50170898 C-9.68157227 263.18170898 -11.00157227 261.86170898 -12.36157227 260.50170898 C-14.85518797 261.70552346 -17.04300309 262.9559962 -19.36157227 264.50170898 C-20.68157227 263.18170898 -22.00157227 261.86170898 -23.36157227 260.50170898 C-24.22782227 260.93483398 -24.22782227 260.93483398 -25.11157227 261.37670898 C-27.1949056 262.41837565 -29.27823893 263.46004232 -31.36157227 264.50170898 C-32.84657227 262.52170898 -32.84657227 262.52170898 -34.36157227 260.50170898 C-37.3233235 261.1144851 -38.74216009 261.7554342 -41.36157227 263.50170898 C-41.3538209 262.68817333 -41.34606953 261.87463768 -41.33808327 261.03644943 C-41.15396472 241.20403109 -41.04776672 221.37251432 -41.02735329 201.53922653 C-41.01561928 191.94763125 -40.9779114 182.35747468 -40.87817383 172.76635742 C-40.79126616 164.40257944 -40.75399206 156.04027137 -40.77530038 147.67604375 C-40.78486911 143.25006494 -40.77028015 138.82725139 -40.69615555 134.40181732 C-39.40305902 115.55059382 -39.40305902 115.55059382 -45.5145874 98.67224121 C-48.78954686 95.49958882 -52.2746968 93.47828828 -56.36157227 91.50170898 C-58.36157227 89.50170898 -58.36157227 89.50170898 -58.6020813 86.86947632 C-58.59764008 85.75472931 -58.59319885 84.6399823 -58.58862305 83.49145508 C-58.58847198 82.23029877 -58.58832092 80.96914246 -58.58816528 79.66976929 C-58.57795124 78.28822676 -58.56751924 76.90668584 -58.55688477 75.52514648 C-58.55315514 74.11553141 -58.55030793 72.70591375 -58.54830933 71.29629517 C-58.54066882 67.58411516 -58.52101688 63.87209138 -58.49890137 60.15997314 C-58.47845185 56.37286492 -58.46930953 52.58573149 -58.45922852 48.79858398 C-58.43777124 41.36621282 -58.40258586 33.93400268 -58.36157227 26.50170898 C-52.75157227 26.50170898 -47.14157227 26.50170898 -41.36157227 26.50170898 C-41.36157227 24.19170898 -41.36157227 21.88170898 -41.36157227 19.50170898 C-39.390704 12.64651502 -34.45208634 7.09905915 -28.51149082 3.32696438 C-19.51021086 -0.90726795 -9.71552766 -0.0507588 0 0 Z " fill="#FDFDFD" transform="translate(175.361572265625,115.498291015625)"/>
<path d="M0 0 C68.31 0 136.62 0 207 0 C207 20.79 207 41.58 207 63 C144.3 63 81.6 63 17 63 C17 67.62 17 72.24 17 77 C11 73 11 73 0 63 C0 42.21 0 21.42 0 0 Z " fill="#FE4556" transform="translate(117,142)"/>
<path d="M0 0 C8.85811698 1.5818066 14.75623529 5.69139119 19.9921875 12.99609375 C23.07820937 19.13225351 23.2907348 25.03507155 23.26742554 31.76519775 C23.27195665 32.73121941 23.27648776 33.69724107 23.28115618 34.69253612 C23.29378783 37.92039862 23.29218059 41.14809212 23.29052734 44.37597656 C23.29651338 46.69410926 23.3033191 49.01223996 23.31088257 51.33036804 C23.32854263 57.62182445 23.33323797 63.91322644 23.33451414 70.20470524 C23.33593636 74.1374601 23.34020731 78.07020115 23.34550858 82.00295258 C23.36305478 95.02087493 23.37234882 108.03876306 23.37084763 121.05669728 C23.37076772 121.75776745 23.3706878 122.45883762 23.37060547 123.18115234 C23.37052371 123.88308412 23.37044195 124.58501589 23.37035771 125.30821833 C23.36954519 136.67825236 23.38867626 148.0481538 23.4168822 159.4181495 C23.44565249 171.10841194 23.4594202 182.79860981 23.45769465 194.48890853 C23.45718528 201.04583025 23.46285515 207.60260189 23.48405075 214.15949249 C23.5034487 220.32866485 23.50354662 226.49754423 23.48901749 232.66672707 C23.48693021 234.92614737 23.49162534 237.1855861 23.5037384 239.4449749 C23.6201117 262.66217554 23.6201117 262.66217554 16.875 273.375 C9.38787348 280.21107204 1.39563775 282.1526432 -8.46206665 282.13371277 C-9.32414179 282.13597833 -10.18621693 282.13824388 -11.07441556 282.14057809 C-13.96840648 282.14691738 -16.86235056 282.14608876 -19.75634766 282.14526367 C-21.82935649 282.14825529 -23.90236477 282.15165782 -25.97537231 282.15544128 C-31.61199374 282.16428725 -37.24859999 282.16661971 -42.88522768 282.16725707 C-47.59169913 282.16820625 -52.29816704 282.17188483 -57.00463712 282.17542917 C-68.112631 282.18357671 -79.22061676 282.1860132 -90.32861328 282.18530273 C-101.78014807 282.1847025 -113.23163567 282.19524289 -124.68315852 282.2110464 C-134.51771123 282.22413393 -144.35224855 282.22948609 -154.1868099 282.22884732 C-160.05903173 282.22859261 -165.93121168 282.23142911 -171.80342484 282.24202538 C-177.33063973 282.25172621 -182.85777287 282.25177188 -188.38499069 282.24450874 C-190.40939199 282.24346523 -192.43379842 282.24581189 -194.45819092 282.2518692 C-197.23089959 282.25962553 -200.00332853 282.25492027 -202.77603149 282.24723816 C-203.56905564 282.25238172 -204.36207978 282.25752529 -205.17913496 282.26282471 C-214.86265034 282.20391332 -223.71901198 280.76979911 -231 274 C-233.47533694 270.8799928 -235.71763882 267.79078475 -237 264 C-236.265625 261.75390625 -236.265625 261.75390625 -235 260 C-233.0625 259.0625 -233.0625 259.0625 -231 259 C-229.25 260.3125 -229.25 260.3125 -228 262 C-228 262.66 -228 263.32 -228 264 C-226.02 262.35 -224.04 260.7 -222 259 C-219.50638429 260.20381448 -217.31856917 261.45428722 -215 263 C-213.02 261.02 -213.02 261.02 -211 259 C-208.50638429 260.20381448 -206.31856917 261.45428722 -204 263 C-202.02 261.02 -202.02 261.02 -200 259 C-197.50638429 260.20381448 -195.31856917 261.45428722 -193 263 C-191.02 261.02 -191.02 261.02 -189 259 C-186.04590299 260.37154504 -183.55991624 261.98863724 -181 264 C-180.7525 263.360625 -180.505 262.72125 -180.25 262.0625 C-179 260 -179 260 -177.0625 259.0625 C-175 259 -175 259 -173.25 260.3125 C-172 262 -172 262 -172 264 C-170.02 262.35 -168.04 260.7 -166 259 C-163.50638429 260.20381448 -161.31856917 261.45428722 -159 263 C-157.68 261.68 -156.36 260.36 -155 259 C-152.50638429 260.20381448 -150.31856917 261.45428722 -148 263 C-146.68 261.68 -145.36 260.36 -144 259 C-141.50638429 260.20381448 -139.31856917 261.45428722 -137 263 C-135.68 261.68 -134.36 260.36 -133 259 C-130.04590299 260.37154504 -127.55991624 261.98863724 -125 264 C-124.7525 263.360625 -124.505 262.72125 -124.25 262.0625 C-123 260 -123 260 -121.0625 259.0625 C-119 259 -119 259 -117.25 260.3125 C-116 262 -116 262 -116 264 C-114.02 262.35 -112.04 260.7 -110 259 C-107.50638429 260.20381448 -105.31856917 261.45428722 -103 263 C-101.68 261.68 -100.36 260.36 -99 259 C-96.50638429 260.20381448 -94.31856917 261.45428722 -92 263 C-90.68 261.68 -89.36 260.36 -88 259 C-85.50638429 260.20381448 -83.31856917 261.45428722 -81 263 C-79.68 261.68 -78.36 260.36 -77 259 C-74.04590299 260.37154504 -71.55991624 261.98863724 -69 264 C-69 263.34 -69 262.68 -69 262 C-67 260.375 -67 260.375 -65 259 C-63.0625 259.8125 -63.0625 259.8125 -61 261 C-60.67 261.99 -60.34 262.98 -60 264 C-58.02 262.35 -56.04 260.7 -54 259 C-51.33333333 260.33333333 -48.66666667 261.66666667 -46 263 C-44.68 261.68 -43.36 260.36 -42 259 C-40.0625 259.8125 -40.0625 259.8125 -38 261 C-37.67 261.99 -37.34 262.98 -37 264 C-36.34 264 -35.68 264 -35 264 C-35 238.92 -35 213.84 -35 188 C-33.68 188.99 -32.36 189.98 -31 191 C-30.4225 190.71125 -29.845 190.4225 -29.25 190.125 C-27.16666667 189.08333333 -25.08333333 188.04166667 -23 187 C-21.35 188.32 -19.7 189.64 -18 191 C-16.68 189.68 -15.36 188.36 -14 187 C-11.50638429 188.20381448 -9.31856917 189.45428722 -7 191 C-5.68 189.68 -4.36 188.36 -3 187 C-0.33333333 188.33333333 2.33333333 189.66666667 5 191 C6.32 189.68 7.64 188.36 9 187 C11.46800047 188.15173355 13.04783565 189.04783565 15 191 C15.07013553 169.12059642 15.12301046 147.24121143 15.15543652 125.36171818 C15.17089385 115.20228882 15.19196171 105.04292939 15.22631836 94.88354492 C15.2562554 86.02681809 15.27558324 77.1701419 15.28226548 68.31336588 C15.28617044 63.62540728 15.29532404 58.93759356 15.31719017 54.24968147 C15.33762334 49.83300496 15.34382003 45.41653237 15.33932304 40.99981308 C15.3401452 39.38296206 15.34607006 37.7661039 15.35761642 36.1492939 C15.43185295 25.21339865 15.36438087 15.87525072 7.62890625 7.5 C5.27404638 5.33149595 2.68866651 3.72842847 0 2 C0 1.34 0 0.68 0 0 Z " fill="#2491B4" transform="translate(372,116)"/>
<path d="M0 0 C5.99553982 4.12126805 10.71889811 9.07220456 12.59014034 16.26999187 C13.08472912 19.5643668 13.12271386 22.72271592 13.12025452 26.05513 C13.12110894 26.75360603 13.12196337 27.45208206 13.12284368 28.17172402 C13.12448707 30.50554091 13.11899583 32.83928547 13.11352539 35.1730957 C13.11324325 36.84868874 13.11340178 38.52428191 13.1139679 40.19987488 C13.11425481 44.74489923 13.10837517 49.28989718 13.10139394 53.8349154 C13.09514278 58.58616518 13.0945552 63.33741556 13.09336853 68.08866882 C13.09026042 77.08416384 13.08205402 86.0796467 13.07201904 95.07513636 C13.06084178 105.31689376 13.05534338 115.55865175 13.05032361 125.80041373 C13.03987099 146.86694927 13.02228159 167.93347387 13 189 C11.35 187.68 9.7 186.36 8 185 C7.13375 185.433125 7.13375 185.433125 6.25 185.875 C4.16666667 186.91666667 2.08333333 187.95833333 0 189 C-1.32 187.68 -2.64 186.36 -4 185 C-6.49361571 186.20381448 -8.68143083 187.45428722 -11 189 C-12.32 187.68 -13.64 186.36 -15 185 C-17.49361571 186.20381448 -19.68143083 187.45428722 -22 189 C-23.32 187.68 -24.64 186.36 -26 185 C-26.5775 185.28875 -27.155 185.5775 -27.75 185.875 C-30.875 187.4375 -30.875 187.4375 -34 189 C-34.99 188.01 -35.98 187.02 -37 186 C-37.33 210.75 -37.66 235.5 -38 261 C-38.66 260.67 -39.32 260.34 -40 260 C-39.96368002 229.3407766 -39.90701584 198.68166783 -39.82207905 168.02254388 C-39.81206198 164.40028357 -39.80221779 160.7780228 -39.79248047 157.15576172 C-39.7905391 156.43465605 -39.78859772 155.71355038 -39.78659752 154.97059302 C-39.75560388 143.305273 -39.73860424 131.63997264 -39.72680578 119.97461922 C-39.71438053 107.99864355 -39.6868482 96.02277079 -39.64538693 84.0468601 C-39.62253869 77.32278128 -39.60659624 70.59883529 -39.60811615 63.8747139 C-39.60886201 57.54308174 -39.59094028 51.21177428 -39.55883217 44.88022614 C-39.55032812 42.55913397 -39.54858664 40.23800541 -39.55419731 37.91690445 C-39.5608508 34.74082581 -39.54288307 31.56577614 -39.51898193 28.38980103 C-39.53062256 27.02107942 -39.53062256 27.02107942 -39.54249835 25.62470686 C-39.43453918 17.48699961 -37.31917021 10.26404263 -31.8125 4.125 C-22.70666499 -4.07025151 -10.96360139 -5.590449 0 0 Z " fill="#CEE3EB" transform="translate(375,119)"/>
<path d="M0 0 C5.99553982 4.12126805 10.71889811 9.07220456 12.59014034 16.26999187 C13.08472912 19.5643668 13.12271386 22.72271592 13.12025452 26.05513 C13.12110894 26.75360603 13.12196337 27.45208206 13.12284368 28.17172402 C13.12448707 30.50554091 13.11899583 32.83928547 13.11352539 35.1730957 C13.11324325 36.84868874 13.11340178 38.52428191 13.1139679 40.19987488 C13.11425481 44.74489923 13.10837517 49.28989718 13.10139394 53.8349154 C13.09514278 58.58616518 13.0945552 63.33741556 13.09336853 68.08866882 C13.09026042 77.08416384 13.08205402 86.0796467 13.07201904 95.07513636 C13.06084178 105.31689376 13.05534338 115.55865175 13.05032361 125.80041373 C13.03987099 146.86694927 13.02228159 167.93347387 13 189 C12.67 189 12.34 189 12 189 C12 133.89 12 78.78 12 22 C1.11 22 -9.78 22 -21 22 C-20.67 76.78 -20.34 131.56 -20 188 C-23 188 -23 188 -24.6875 186.5 C-25.3371875 185.7575 -25.3371875 185.7575 -26 185 C-26.5775 185.28875 -27.155 185.5775 -27.75 185.875 C-30.875 187.4375 -30.875 187.4375 -34 189 C-34.99 188.01 -35.98 187.02 -37 186 C-37.33 210.75 -37.66 235.5 -38 261 C-38.66 260.67 -39.32 260.34 -40 260 C-39.96368002 229.3407766 -39.90701584 198.68166783 -39.82207905 168.02254388 C-39.81206198 164.40028357 -39.80221779 160.7780228 -39.79248047 157.15576172 C-39.7905391 156.43465605 -39.78859772 155.71355038 -39.78659752 154.97059302 C-39.75560388 143.305273 -39.73860424 131.63997264 -39.72680578 119.97461922 C-39.71438053 107.99864355 -39.6868482 96.02277079 -39.64538693 84.0468601 C-39.62253869 77.32278128 -39.60659624 70.59883529 -39.60811615 63.8747139 C-39.60886201 57.54308174 -39.59094028 51.21177428 -39.55883217 44.88022614 C-39.55032812 42.55913397 -39.54858664 40.23800541 -39.55419731 37.91690445 C-39.5608508 34.74082581 -39.54288307 31.56577614 -39.51898193 28.38980103 C-39.53062256 27.02107942 -39.53062256 27.02107942 -39.54249835 25.62470686 C-39.43453918 17.48699961 -37.31917021 10.26404263 -31.8125 4.125 C-22.70666499 -4.07025151 -10.96360139 -5.590449 0 0 Z " fill="#B9D3DD" transform="translate(375,119)"/>
<path d="M0 0 C47.52 0 95.04 0 144 0 C144 1.98 144 3.96 144 6 C96.48 6 48.96 6 0 6 C0 4.02 0 2.04 0 0 Z " fill="#040404" transform="translate(154,271)"/>
<path d="M0 0 C4.83680507 1.80175806 7.81436416 4.30731128 10 9 C10.31540185 11.74768999 10.46546861 14.19911849 10.4375 16.9375 C10.4674707 17.97293945 10.4674707 17.97293945 10.49804688 19.02929688 C10.4931797 24.1641637 9.22596598 27.06173131 6 31 C1.2606918 34.3064941 -3.38590885 34.88537638 -9 34 C-12.89821918 32.1952689 -14.57074815 30.67249456 -16.875 27.0625 C-19.23652149 20.52942857 -19.23719161 12.71230468 -16.375 6.4375 C-11.46678302 1.40011942 -7.20604294 -1.3772167 0 0 Z " fill="#FFF8F8" transform="translate(225,157)"/>
<path d="M0 0 C4.03739487 1.67760718 7.06147431 3.97348753 10 7.1875 C11.73445711 12.06566063 11.96790321 17.11269551 10.30859375 22.0625 C8.07409742 26.40060166 5.3831538 28.97076213 1 31 C-4.02663858 31.79411065 -7.79701968 31.60149016 -12.375 29.3125 C-17.26131234 25.00789151 -19.77243214 21.77632792 -20.3125 15.1875 C-20.24804334 10.79639006 -18.84937886 8.38845054 -16 5 C-10.70822267 0.33819616 -6.9996421 -0.9919875 0 0 Z " fill="#EEEFFB" transform="translate(294,308)"/>
<path d="M0 0 C34.65 0 69.3 0 105 0 C105 2.31 105 4.62 105 7 C70.35 7 35.7 7 0 7 C0 4.69 0 2.38 0 0 Z " fill="#181818" transform="translate(154,289)"/>
<path d="M0 0 C7 0 7 0 8.89624023 1.52880859 C9.36231689 2.22828613 9.82839355 2.92776367 10.30859375 3.6484375 C10.82744141 4.40640625 11.34628906 5.164375 11.88085938 5.9453125 C12.39455078 6.74710938 12.90824219 7.54890625 13.4375 8.375 C13.97826172 9.1690625 14.51902344 9.963125 15.07617188 10.78125 C19 16.63474834 19 16.63474834 19 19 C19.66 19 20.32 19 21 19 C21 12.73 21 6.46 21 0 C22.98 0 24.96 0 27 0 C27 10.89 27 21.78 27 33 C20 33 20 33 18.11962891 31.28759766 C17.43006104 30.11269775 17.43006104 30.11269775 16.7265625 28.9140625 C15.95505859 27.64175781 15.95505859 27.64175781 15.16796875 26.34375 C14.65878906 25.4465625 14.14960938 24.549375 13.625 23.625 C13.09261719 22.73554688 12.56023437 21.84609375 12.01171875 20.9296875 C10.26193211 17.99111452 8.52981701 15.05963403 7 12 C6.67 18.6 6.34 25.2 6 32 C4.02 32 2.04 32 0 32 C0 21.44 0 10.88 0 0 Z " fill="#FFFCFC" transform="translate(143,158)"/>
<path d="M0 0 C7.26 0 14.52 0 22 0 C22 1.98 22 3.96 22 6 C16.72 6 11.44 6 6 6 C6 7.98 6 9.96 6 12 C9.3 12 12.6 12 16 12 C16 14.31 16 16.62 16 19 C13.03 19 10.06 19 7 19 C7 21.31 7 23.62 7 26 C12.61 26 18.22 26 24 26 C24 28.31 24 30.62 24 33 C16.08 33 8.16 33 0 33 C0 22.11 0 11.22 0 0 Z " fill="#FFF3F4" transform="translate(286,158)"/>
<path d="M0 0 C2.64 0 5.28 0 8 0 C10.70071112 6.27980887 12.70024676 12.28460827 14 19 C14.66 19 15.32 19 16 19 C16.11214844 18.32582031 16.22429687 17.65164062 16.33984375 16.95703125 C17.12920501 13.42125328 18.31499849 10.08056434 19.5625 6.6875 C19.79646484 6.04232422 20.03042969 5.39714844 20.27148438 4.73242188 C20.84447007 3.15378781 21.42179464 1.57672974 22 0 C24.64 0 27.28 0 30 0 C27.87489029 7.62539365 25.21188198 14.99443907 22.42553711 22.39770508 C22.12784424 23.19200928 21.83015137 23.98631348 21.5234375 24.8046875 C21.25450684 25.51608887 20.98557617 26.22749023 20.70849609 26.96044922 C20.01516262 28.95635131 19.47909004 30.94320693 19 33 C16.69 33 14.38 33 12 33 C8.9592066 25.85343487 6.03685715 18.66226633 3.1875 11.4375 C2.87353271 10.65197754 2.55956543 9.86645508 2.23608398 9.05712891 C1.94548096 8.3151123 1.65487793 7.5730957 1.35546875 6.80859375 C1.09403076 6.14657959 0.83259277 5.48456543 0.56323242 4.80249023 C0 3 0 3 0 0 Z " fill="#FFF6F7" transform="translate(175,158)"/>
<path d="M0 0 C2.44969175 2.08944297 3.21626425 3.75584338 4.125 6.8125 C1.3125 7.9375 1.3125 7.9375 -1.875 8.8125 C-2.865 8.1525 -3.855 7.4925 -4.875 6.8125 C-8.94076797 6.34508701 -8.94076797 6.34508701 -12.546875 7.95703125 C-14.44330643 10.60645751 -14.2039713 12.59047101 -14.125 15.8125 C-14.10953125 16.864375 -14.0940625 17.91625 -14.078125 19 C-13.98565229 21.89232352 -13.98565229 21.89232352 -12.875 24.8125 C-11.45876784 24.86697047 -10.04191809 24.90550508 -8.625 24.9375 C-7.44164062 24.97230469 -7.44164062 24.97230469 -6.234375 25.0078125 C-3.66036849 24.79473249 -2.14916794 23.96885658 0.125 22.8125 C2.375 23.6875 2.375 23.6875 4.125 24.8125 C3.21016297 28.197397 2.46274897 29.57360439 -0.4375 31.625 C-6.15062584 33.59862529 -10.71754874 33.81132003 -16.25 31.25 C-20.44696967 27.35281388 -21.6313154 24.2252784 -22.19140625 18.6796875 C-22.36775483 13.68504063 -22.33546652 9.86236367 -20.3125 5.25 C-14.38161599 -0.68088401 -8.24947611 -3.40739231 0 0 Z " fill="#FFF6F6" transform="translate(275.875,158.1875)"/>
<path d="M0 0 C5.14650994 2.5500725 8.52555647 7.29335011 10.796875 12.421875 C11.99429419 18.3358461 11.04713698 23.45432312 8.06640625 28.66796875 C4.98082823 32.93081347 0.93953936 36.1063097 -4.203125 37.421875 C-9.62396339 38.08795155 -13.93344559 37.78946879 -18.56640625 34.765625 C-22.41788352 31.60355297 -25.61857066 28.17553802 -27.203125 23.421875 C-27.68826982 17.91031167 -27.97049816 13.04516438 -25.578125 7.984375 C-18.17855331 0.00062659 -11.02863112 -2.89403795 0 0 Z M-23.203125 11.421875 C-24.80507277 14.62577053 -24.5548011 17.93767657 -24.203125 21.421875 C-22.20015832 27.09694725 -18.58962321 30.72862589 -13.203125 33.421875 C-8.13229473 34.07079295 -3.62688639 34.2043826 0.734375 31.296875 C4.497988 28.11023097 6.459847 25.00435203 7.109375 20.02734375 C7.31407953 15.76053364 7.04715576 12.96248144 5.234375 9.046875 C1.05047894 4.54114078 -2.65387177 2.23054941 -8.765625 1.921875 C-15.53566827 2.25577169 -19.40950813 6.08271052 -23.203125 11.421875 Z " fill="#8B97E6" transform="translate(298.203125,305.578125)"/>
<path d="M0 0 C3.3 0 6.6 0 10 0 C10 10.23 10 20.46 10 31 C6.7 31 3.4 31 0 31 C0 20.77 0 10.54 0 0 Z " fill="#0D0D0D" transform="translate(281,219)"/>
<path d="M0 0 C3.3 0 6.6 0 10 0 C10 10.23 10 20.46 10 31 C6.7 31 3.4 31 0 31 C0 20.77 0 10.54 0 0 Z " fill="#0C0C0C" transform="translate(257,219)"/>
<path d="M0 0 C2.97 0 5.94 0 9 0 C9 10.23 9 20.46 9 31 C6.03 31 3.06 31 0 31 C0 20.77 0 10.54 0 0 Z " fill="#010101" transform="translate(224,219)"/>
<path d="M0 0 C2.97 0 5.94 0 9 0 C9 10.23 9 20.46 9 31 C6.03 31 3.06 31 0 31 C0 20.77 0 10.54 0 0 Z " fill="#131313" transform="translate(152,219)"/>
<path d="M0 0 C3.63326668 0.60554445 4.74144325 1.6558915 7 4.5 C8.73422892 7.96845783 8.46502956 11.70771673 8 15.5 C6.0646263 19.0729976 4.84531622 20.17626187 1.0625 21.625 C-2 21.5 -2 21.5 -4.875 19.8125 C-7.96533121 14.995219 -8.11362647 10.0834927 -7 4.5 C-4.6818304 1.56430531 -3.72620412 0.62103402 0 0 Z " fill="#FF495A" transform="translate(221,163.5)"/>
<path d="M0 0 C2.64 0 5.28 0 8 0 C8 10.23 8 20.46 8 31 C5.36 31 2.72 31 0 31 C0 20.77 0 10.54 0 0 Z " fill="#040404" transform="translate(200,219)"/>
<path d="M0 0 C2.64 0 5.28 0 8 0 C8 10.23 8 20.46 8 31 C5.36 31 2.72 31 0 31 C0 20.77 0 10.54 0 0 Z " fill="#030303" transform="translate(166,219)"/>
<path d="M0 0 C2.31 0 4.62 0 7 0 C7 10.89 7 21.78 7 33 C4.69 33 2.38 33 0 33 C0 22.11 0 11.22 0 0 Z " fill="#FFEFF1" transform="translate(129,158)"/>
<path d="M0 0 C1.98 0 3.96 0 6 0 C6 10.56 6 21.12 6 32 C4.02 32 2.04 32 0 32 C0 21.44 0 10.88 0 0 Z " fill="#FFFFFF" transform="translate(241,158)"/>
<path d="M0 0 C1.65 0 3.3 0 5 0 C5 10.23 5 20.46 5 31 C3.35 31 1.7 31 0 31 C0 20.77 0 10.54 0 0 Z " fill="#0E0E0E" transform="translate(272,219)"/>
<path d="M0 0 C1.65 0 3.3 0 5 0 C5 10.23 5 20.46 5 31 C3.35 31 1.7 31 0 31 C0 20.77 0 10.54 0 0 Z " fill="#101010" transform="translate(248,219)"/>
<path d="M0 0 C1.65 0 3.3 0 5 0 C5 10.23 5 20.46 5 31 C3.35 31 1.7 31 0 31 C0 20.77 0 10.54 0 0 Z " fill="#0E0E0E" transform="translate(239,219)"/>
<path d="M0 0 C1.65 0 3.3 0 5 0 C5 10.23 5 20.46 5 31 C3.35 31 1.7 31 0 31 C0 20.77 0 10.54 0 0 Z " fill="#1C1C1C" transform="translate(190,219)"/>
<path d="M0 0 C1.65 0 3.3 0 5 0 C5 10.23 5 20.46 5 31 C3.35 31 1.7 31 0 31 C0 20.77 0 10.54 0 0 Z " fill="#0E0E0E" transform="translate(180,219)"/>
<path d="M0 0 C1.32 0 2.64 0 4 0 C4 10.23 4 20.46 4 31 C2.68 31 1.36 31 0 31 C0 20.77 0 10.54 0 0 Z " fill="#050505" transform="translate(214,219)"/>
<path d="M0 0 C1.32 0 2.64 0 4 0 C4 10.23 4 20.46 4 31 C2.68 31 1.36 31 0 31 C0 20.77 0 10.54 0 0 Z " fill="#060606" transform="translate(296,219)"/>
<path d="M0 0 C5.28 0 10.56 0 16 0 C16 4.62 16 9.24 16 14 C10.06200661 10.40595137 4.96394811 5.83641585 0 1 C0 0.67 0 0.34 0 0 Z " fill="#BE2334" transform="translate(118,205)"/>
<path d="M0 0 C4.62 0 9.24 0 14 0 C14 0.99 14 1.98 14 3 C9.38 3 4.76 3 0 3 C0 2.01 0 1.02 0 0 Z " fill="#ADB5ED" transform="translate(280,327)"/>
</svg>
